<?xml version="1.0" encoding="utf-8"?>
<!-- Generator: Adobe Illustrator 26.3.1, SVG Export Plug-In . SVG Version: 6.00 Build 0)  -->
<svg version="1.1" id="PREMATLAK" xmlns="http://www.w3.org/2000/svg" xmlns:xlink="http://www.w3.org/1999/xlink" x="0px" y="0px"
	 viewBox="0 0 492.6 97.4" style="enable-background:new 0 0 492.6 97.4;" xml:space="preserve">
<style type="text/css">
	.st0{fill:#666666;}
	.st1{fill:#FF0001;}
	.st2{fill:#0C419A;}
</style>
<g>
	<path class="st0" d="M121.1,91.8c-0.7,0.4-2.2,0.7-4.1,0.7c-4.4,0-7.7-2.8-7.7-7.9c0-4.9,3.3-8.2,8.2-8.2c1.9,0,3.2,0.4,3.7,0.7
		l-0.5,1.6c-0.7-0.4-1.8-0.6-3.1-0.6c-3.7,0-6.1,2.3-6.1,6.4c0,3.8,2.2,6.3,6,6.3c1.2,0,2.5-0.3,3.3-0.6L121.1,91.8z M115.8,75.8
		l-2.4-2.6h1.7l1.5,1.6l0,0l1.5-1.6h1.6l-2.4,2.6H115.8z"/>
</g>
<rect x="123.1" y="75.8" class="st0" width="2" height="16.5"/>
<g>
	<path class="st0" d="M129.4,87c0,2.8,1.8,3.9,3.8,3.9c1.5,0,2.4-0.3,3.1-0.6l0.4,1.5c-0.7,0.3-2,0.7-3.8,0.7
		c-3.5,0-5.5-2.3-5.5-5.7c0-3.4,2-6,5.3-6c3.7,0,4.6,3.2,4.6,5.3c0,0.4,0,0.7-0.1,1h-7.8V87z M135.4,85.6c0-1.3-0.5-3.3-2.8-3.3
		c-2.1,0-3,1.9-3.1,3.3H135.4z"/>
	<path class="st0" d="M139.6,84.1c0-1.2,0-2.1-0.1-3h1.8l0.1,1.9l0,0c0.6-1,1.9-2.1,3.7-2.1c1.6,0,4,0.9,4,4.8v6.7h-2v-6.6
		c0-1.8-0.7-3.3-2.6-3.3c-1.3,0-2.4,1-2.7,2.1c-0.1,0.3-0.1,0.6-0.1,1v6.7h-2L139.6,84.1L139.6,84.1z"/>
	<path class="st0" d="M157.1,90.2c0.6,0.4,1.7,0.8,2.7,0.8c1.5,0,2.2-0.7,2.2-1.7s-0.6-1.5-2.1-2c-2-0.7-3-1.8-3-3.2
		c0-1.8,1.5-3.3,3.9-3.3c1.1,0,2.1,0.3,2.7,0.7L163,83c-0.4-0.3-1.3-0.7-2.3-0.7c-1.2,0-1.9,0.7-1.9,1.5c0,0.9,0.6,1.3,2.1,1.9
		c1.9,0.7,2.9,1.7,2.9,3.4c0,2-1.6,3.4-4.2,3.4c-1.2,0-2.4-0.3-3.2-0.8L157.1,90.2z"/>
	<path class="st0" d="M168.2,86.2L168.2,86.2c0.3-0.4,0.7-0.9,1-1.3l3.3-3.9h2.4l-4.3,4.6l4.9,6.6H173l-3.8-5.4l-1,1.2v4.2h-2V75.8
		h2L168.2,86.2L168.2,86.2z"/>
	<path class="st0" d="M186.2,89.2c0,1.2,0,2.2,0.1,3.1h-1.8l-0.1-1.8l0,0c-0.5,0.9-1.7,2.1-3.7,2.1c-1.8,0-3.9-1-3.9-4.9v-6.6h2v6.2
		c0,2.1,0.7,3.6,2.5,3.6c1.4,0,2.3-1,2.7-1.9c0.1-0.3,0.2-0.6,0.2-1v-6.9h2V89.2z"/>
	<path class="st0" d="M189.3,84.7c0-1.4,0-2.6-0.1-3.7h1.8l0.1,1.9l0,0c0.8-1.4,2.2-2.2,4-2.2c2.7,0,4.8,2.3,4.8,5.7
		c0,4-2.5,6-5.1,6c-1.5,0-2.8-0.6-3.5-1.8l0,0v6.1h-2V84.7z M191.3,87.7c0,0.3,0,0.6,0.1,0.8c0.4,1.4,1.6,2.4,3.1,2.4
		c2.2,0,3.4-1.8,3.4-4.3c0-2.2-1.2-4.1-3.3-4.1c-1.4,0-2.7,1-3.1,2.5c-0.1,0.3-0.1,0.6-0.1,0.8L191.3,87.7L191.3,87.7z"/>
	<path class="st0" d="M204.5,77.9c0,0.7-0.5,1.3-1.3,1.3c-0.7,0-1.2-0.6-1.2-1.3c0-0.7,0.5-1.3,1.3-1.3
		C204,76.6,204.5,77.2,204.5,77.9 M202.2,81.1h2v11.2h-2V81.1z"/>
	<path class="st0" d="M207.3,84.1c0-1.2,0-2.1-0.1-3h1.8l0.1,1.9l0,0c0.6-1,1.9-2.1,3.7-2.1c1.6,0,4,0.9,4,4.8v6.7h-2v-6.6
		c0-1.8-0.7-3.3-2.6-3.3c-1.3,0-2.4,1-2.7,2.1c-0.1,0.3-0.1,0.6-0.1,1v6.7h-2L207.3,84.1L207.3,84.1z"/>
	<path class="st0" d="M220.2,81.1l2.4,6.6c0.3,0.7,0.6,1.6,0.7,2.3l0,0c0.2-0.7,0.4-1.5,0.7-2.3l2.2-6.6h2.2l-3.1,8
		c-1.5,3.8-2.5,5.8-3.8,7c-1,0.9-2,1.2-2.5,1.3l-0.5-1.7c0.5-0.2,1.2-0.5,1.8-1c0.6-0.4,1.2-1.2,1.7-2.3c0.1-0.2,0.2-0.4,0.2-0.5
		s0-0.3-0.2-0.5l-4.1-10.3H220.2z"/>
</g>
<polygon class="st0" points="243.4,85 237.3,85 237.3,90.6 244.1,90.6 244.1,92.3 235.3,92.3 235.3,76.7 243.8,76.7 243.8,78.4 
	237.3,78.4 237.3,83.3 243.4,83.3 "/>
<g>
	<path class="st0" d="M246.1,84.1c0-1.2,0-2.1-0.1-3h1.8l0.1,1.9l0,0c0.6-1,1.9-2.1,3.7-2.1c1.6,0,4,0.9,4,4.8v6.7h-2v-6.6
		c0-1.8-0.7-3.3-2.6-3.3c-1.3,0-2.4,1-2.7,2.1c-0.1,0.3-0.1,0.6-0.1,1v6.7h-2L246.1,84.1L246.1,84.1z"/>
	<path class="st0" d="M259.9,87c0,2.8,1.8,3.9,3.8,3.9c1.5,0,2.4-0.3,3.1-0.6l0.4,1.5c-0.7,0.3-2,0.7-3.8,0.7
		c-3.5,0-5.5-2.3-5.5-5.7c0-3.4,2-6,5.3-6c3.7,0,4.6,3.2,4.6,5.3c0,0.4,0,0.7-0.1,1h-7.8V87z M265.9,85.6c0-1.3-0.5-3.3-2.8-3.3
		c-2.1,0-3,1.9-3.1,3.3H265.9z"/>
	<path class="st0" d="M270.1,84.6c0-1.3,0-2.5-0.1-3.5h1.8l0.1,2.2h0.1c0.5-1.5,1.8-2.5,3.1-2.5c0.2,0,0.4,0,0.6,0v1.9
		c-0.2,0-0.4,0-0.7,0c-1.4,0-2.5,1.1-2.7,2.6c0,0.3-0.1,0.6-0.1,0.9v6h-2L270.1,84.6L270.1,84.6z"/>
	<path class="st0" d="M286.9,90.6c0,2.6-0.5,4.1-1.6,5.1s-2.7,1.3-4.1,1.3c-1.3,0-2.8-0.3-3.7-0.9l0.5-1.6c0.7,0.5,1.9,0.9,3.3,0.9
		c2.1,0,3.6-1.1,3.6-3.9v-1.2l0,0c-0.6,1-1.8,1.9-3.6,1.9c-2.8,0-4.8-2.4-4.8-5.5c0-3.8,2.5-5.9,5.1-5.9c1.9,0,3,1,3.5,1.9l0,0
		l0.1-1.7h1.8c-0.1,0.8-0.1,1.7-0.1,3.1L286.9,90.6L286.9,90.6z M284.8,85.5c0-0.3,0-0.6-0.1-0.9c-0.4-1.2-1.3-2.2-2.9-2.2
		c-1.9,0-3.3,1.6-3.3,4.2c0,2.2,1.1,4,3.3,4c1.3,0,2.4-0.8,2.8-2.1c0.1-0.3,0.2-0.7,0.2-1.1V85.5z"/>
	<path class="st0" d="M290.8,81.1l2.4,6.6c0.3,0.7,0.6,1.6,0.7,2.3l0,0c0.2-0.7,0.4-1.5,0.7-2.3l2.2-6.6h2.2l-3.1,8
		c-1.5,3.8-2.5,5.8-3.8,7c-1,0.9-2,1.2-2.5,1.3l-0.5-1.7c0.5-0.2,1.2-0.5,1.8-1c0.6-0.4,1.2-1.2,1.7-2.3c0.1-0.2,0.2-0.4,0.2-0.5
		s0-0.3-0.2-0.5l-4.1-10.3H290.8z"/>
	<path class="st0" d="M317.9,91.6c-0.9,0.3-2.7,0.9-4.8,0.9c-2.4,0-4.3-0.6-5.8-2.1c-1.3-1.3-2.2-3.4-2.2-5.8c0-4.7,3.2-8.1,8.5-8.1
		c1.8,0,3.2,0.4,3.9,0.7l-0.5,1.6c-0.8-0.4-1.9-0.7-3.5-0.7c-3.8,0-6.3,2.4-6.3,6.3c0,4,2.4,6.3,6,6.3c1.3,0,2.2-0.2,2.7-0.4v-4.7
		h-3.1V84h5.1V91.6z"/>
	<path class="st0" d="M320.7,84.6c0-1.3,0-2.5-0.1-3.5h1.8l0.1,2.2h0.1c0.5-1.5,1.8-2.5,3.1-2.5c0.2,0,0.4,0,0.6,0v1.9
		c-0.2,0-0.4,0-0.7,0c-1.4,0-2.5,1.1-2.7,2.6c0,0.3-0.1,0.6-0.1,0.9v6h-2L320.7,84.6L320.7,84.6z"/>
	<path class="st0" d="M338.1,86.6c0,4.1-2.9,6-5.6,6c-3,0-5.4-2.2-5.4-5.8c0-3.7,2.5-5.9,5.6-5.9C335.9,80.8,338.1,83.2,338.1,86.6
		 M329.2,86.7c0,2.5,1.4,4.3,3.4,4.3c1.9,0,3.4-1.8,3.4-4.4c0-1.9-1-4.3-3.4-4.3C330.2,82.4,329.2,84.6,329.2,86.7"/>
	<path class="st0" d="M349.8,89.2c0,1.2,0,2.2,0.1,3.1h-1.8l-0.1-1.8l0,0c-0.5,0.9-1.7,2.1-3.7,2.1c-1.8,0-3.9-1-3.9-4.9v-6.6h2v6.2
		c0,2.1,0.7,3.6,2.5,3.6c1.4,0,2.3-1,2.7-1.9c0.1-0.3,0.2-0.6,0.2-1v-6.9h2L349.8,89.2L349.8,89.2z"/>
	<path class="st0" d="M352.8,84.7c0-1.4,0-2.6-0.1-3.7h1.8l0.1,1.9l0,0c0.8-1.4,2.2-2.2,4-2.2c2.7,0,4.8,2.3,4.8,5.7
		c0,4-2.5,6-5.1,6c-1.5,0-2.8-0.6-3.5-1.8l0,0v6.1h-2L352.8,84.7L352.8,84.7z M354.8,87.7c0,0.3,0,0.6,0.1,0.8
		c0.4,1.4,1.6,2.4,3.1,2.4c2.2,0,3.4-1.8,3.4-4.3c0-2.2-1.2-4.1-3.3-4.1c-1.4,0-2.7,1-3.1,2.5c-0.1,0.3-0.1,0.6-0.1,0.8v1.9H354.8z"
		/>
</g>
<polygon class="st1" points="411.6,92.3 411.6,86 401.8,86 401.8,82.9 411.6,82.9 411.6,82.9 414.6,82.9 414.6,92.3 "/>
<polygon points="396.2,92.2 396.2,76.7 414.6,76.7 414.6,79.7 399.5,79.7 399.5,89.2 409.3,89.2 409.3,92.2 399.5,92.2 399.5,92.2 
	"/>
<polygon points="378.9,76.7 379,76.7 379,82.9 394.2,82.9 394.2,86 379,86 379,89.2 394.2,89.2 394.2,92.2 379,92.2 379,92.2 
	375.7,92.2 375.7,76.7 "/>
<polygon points="394.3,76.7 394.3,79.8 381,79.8 381.1,79.8 381.1,76.7 "/>
<g>
	<path class="st2" d="M137.9,36.1c0,2.6-1.3,3.9-3.9,3.9h-13V25.7h13c2.6,0,3.9,1.3,3.9,3.9V36.1z M146.5,46.1
		c2.1-2.1,3.1-5.4,3.1-9.9v-6.5c0-4.6-1-7.9-3.1-9.9c-2.1-2.1-5.4-3.1-9.9-3.1h-27.4v45.6h11.7v-13h15.6
		C141.2,49.1,144.5,48.1,146.5,46.1 M183.1,35.5c0,2.6-1.3,3.9-3.9,3.9h-13V25.7h13c2.6,0,3.9,1.3,3.9,3.9V35.5z M195.5,62.2
		l-8.1-14.4c2.6-0.7,4.5-2,5.7-4s1.8-4.8,1.8-8.4v-5.9c0-4.6-1-7.9-3.1-9.9c-2.1-2.1-5.4-3.1-9.9-3.1h-27.4v45.6h11.7V48.5h9.1
		l7.5,13.7C182.8,62.2,195.5,62.2,195.5,62.2z M200.4,62.2h36.1v-9.1h-24.4v-9.4h19.2v-9.1h-19.2v-8.8h24.4v-9.1h-36.1V62.2z
		 M280.2,62.2h11.7V16.6h-12.4l-13,24.1l-13-24.1h-12.4v45.6h11.7V36.8l9.1,16.3h9.1l9.1-16.3L280.2,62.2L280.2,62.2z M322.8,45.6
		h-10.4l5.2-15.3L322.8,45.6z M341.4,62.2l-17.3-45.6h-13l-17.3,45.6h12.7l2.9-8.1h16.4l2.9,8.1H341.4z M359,25.7h13.7v-9.1h-39.1
		v9.1h13.7v36.5H359L359,25.7L359,25.7z M430.3,45.6h-10.4l5.2-15.3L430.3,45.6z M436.2,62.2h12.7l-17.3-45.6h-13l-13.8,36.5h-16.2
		V16.6h-11.7v45.6h24.4h11.1h1.6l2.9-8.1h16.3L436.2,62.2z M492.6,16.6h-12.4L470,34.5h-5.9V16.6h-11.7v45.6h11.7V43.6h5.9
		l10.1,18.6h12.4l-12.7-23.1L492.6,16.6z"/>
	<path class="st2" d="M10.3,34h6.2l23.6,40.9c0,0,0.4,0.9,1.5,0.9s1.5-0.8,1.5-0.8L86.9,0h5.7L47.5,78.2c0,0-1.6,3.3-5.7,3.3
		c-4.3,0-6.1-3.5-6.4-4C34.9,77,10.2,34,10.3,34"/>
	<path class="st2" d="M48.4,7.5h-5.7v22.2H60v-4.4H48.4V7.5z M13.9,17c0,1.3-0.6,1.9-1.9,1.9H5.7v-7H12c1.3,0,1.9,0.6,1.9,1.9V17z
		 M0,29.7h5.7v-6.3h7.6c2.2,0,3.8-0.5,4.8-1.5s1.5-2.6,1.5-4.8v-3.3c0-2.2-0.5-3.8-1.5-4.8s-2.6-1.5-4.8-1.5H0V29.7z"/>
</g>
<polygon class="st2" points="33,11.9 39.7,11.9 39.7,7.5 20.7,7.5 20.7,11.9 27.3,11.9 27.3,29.7 33,29.7 "/>
</svg>
