<?xml version="1.0" encoding="UTF-8"?><svg id="Layer_1" xmlns="http://www.w3.org/2000/svg" xmlns:xlink="http://www.w3.org/1999/xlink" viewBox="0 0 300.01 119.78"><defs><style>.cls-1,.cls-2{fill:#231f20;}.cls-3{fill:url(#radial-gradient);}.cls-2,.cls-4{fill-rule:evenodd;}.cls-4{fill:#006ca5;}</style><radialGradient id="radial-gradient" cx="45.49" cy="33.94" fx="45.49" fy="33.94" r="30.4" gradientTransform="translate(.26)" gradientUnits="userSpaceOnUse"><stop offset=".02" stop-color="#daedda"/><stop offset=".24" stop-color="#b5ddb8"/><stop offset=".5" stop-color="#8dcc94"/><stop offset=".54" stop-color="#7fc98d"/><stop offset=".86" stop-color="#24b55f"/><stop offset="1" stop-color="#00ae4d"/></radialGradient></defs><path class="cls-1" d="M300,17.57c-7.04-6.48-16.84-9.64-27.9-9.64-21.95,0-37.95,14.42-37.95,37s16,37,37.95,37c10.33,0,18.76-1.99,27.9-6.76v-36.8h-23.29v14.32h8.76v11.44c-2.88,1.59-6.61,3.48-13.36,3.48-13.21,0-21.86-9.55-21.86-22.68s8.64-22.68,21.86-22.68c7.47,0,12.41,2.78,16.47,6.75l11.43-11.43h0Z"/><path class="cls-1" d="M174.3,9.62h-17.25l-12.8,37.61c-2.06,6.16-2.93,9.61-4.01,14.1h-.11c-1.3-4.91-2.71-9.3-4.01-13.16l-12.91-38.55h-18.23l24.84,70.52h19.74l24.74-70.52h0Z"/><path class="cls-2" d="M236.82,80.14l-25.71-70.52h-19.2l-24.73,70.52h16.82l4.45-13.06h25.28l4.56,13.06h18.55ZM209.48,54.23h-16.93l4.77-13.27c1.52-4.29,2.71-8.67,3.47-12.54h.22c.76,4.18,1.95,7.73,3.36,11.7l5.1,14.1h0Z"/><path class="cls-3" d="M8.31,47.37c-2.64,2.89-4.58,6.29-5.68,10.17-.19.68-.9.67-1.08-.01C.67,54.1.07,50.32,0,46.63-.44,21.31,19.69.44,44.97,0c12.65-.22,24.19,4.72,32.62,12.89,3.8,3.52,6.15,8.49,6.25,14.07.19,10.87-8.45,19.84-19.31,20.03-5.37.09-10.28-1.98-13.89-5.42l-3.92,4.14c4.7,4.36,11.03,6.97,17.94,6.86,3.9-.07,7.6-1,10.88-2.61-1.43,15.22-13.95,26.54-29.22,26.81-8.47.14-16.21-3.14-21.88-8.58-.74-.74-1.36-1.92-1.38-3.09-.04-2.35,1.83-4.29,4.18-4.33,1-.02,1.93.39,2.65.95l4.74-4.9c-1.96-1.72-4.53-2.74-7.34-2.69-5.99.1-10.76,5.05-10.65,11.04.05,2.97,1.28,5.63,3.24,7.56,6.87,6.59,16.31,10.67,26.56,10.5,20.61-.35,37.03-17.38,36.67-38.03l.15-1.04c2.63-2.89,4.63-6.36,5.74-10.21.19-.67.89-.67,1.07.01.94,3.53,1.41,7.29,1.48,11.1.45,25.32-19.68,46.19-44.96,46.62-12.64.22-24.18-4.72-32.61-12.87-3.8-3.52-6.15-8.53-6.24-14.11-.19-10.87,8.45-19.84,19.31-20.03,5.37-.09,10.28,1.98,13.89,5.42l3.92-4.14c-4.7-4.36-11.03-6.98-17.94-6.86-3.91.07-7.58,1.01-10.87,2.63,1.43-15.21,13.92-26.53,29.19-26.79,8.53-.15,16.32,3.19,22.01,8.7.75.74,1.25,1.78,1.27,2.94.04,2.35-1.83,4.29-4.18,4.33-.98.02-1.92-.31-2.66-.86l-4.73,4.81c1.96,1.72,4.53,2.74,7.33,2.69,5.99-.1,10.76-5.05,10.65-11.04-.05-2.97-1.28-5.64-3.24-7.56-6.88-6.68-16.24-10.65-26.58-10.47-20.61.36-37.03,17.38-36.67,38.02l-.13.89h0Z"/><path class="cls-1" d="M122.79,115.94c-.18,0-.28-.09-.28-.28v-.88h-.03c-.75.98-1.98,1.46-3.67,1.46-.83,0-1.58-.15-2.25-.44-.67-.29-1.2-.74-1.6-1.35-.4-.61-.59-1.37-.59-2.29,0-1.43.5-2.51,1.49-3.23.99-.72,2.34-1.07,4.05-1.07h2.37c.11,0,.17-.05.17-.17v-.5c0-.42-.08-.77-.25-1.03-.17-.27-.45-.46-.84-.59-.4-.13-.94-.19-1.64-.19-.64,0-1.21.08-1.71.23-.5.16-.92.36-1.27.62-.07.06-.14.08-.21.07-.06,0-.11-.05-.15-.12l-1.24-2.18c-.09-.17-.07-.29.08-.39,1.25-.88,2.9-1.32,4.96-1.32,1.43,0,2.58.17,3.45.51.86.34,1.49.86,1.89,1.57.4.71.59,1.62.59,2.74v8.55c0,.18-.09.28-.28.28h-3.06ZM119.98,113.35c1.65,0,2.48-.62,2.48-1.85v-.91c0-.11-.05-.17-.17-.17h-1.87c-1.58,0-2.37.51-2.37,1.52,0,.94.64,1.41,1.93,1.41Z"/><path class="cls-1" d="M239.59,116.24c-1.62,0-2.79-.51-3.5-1.54h-.03v.96c0,.18-.09.28-.27.28h-3.31c-.18,0-.27-.09-.27-.28v-18.2c0-.18.09-.28.27-.28h3.31c.18,0,.27.09.27.28v6.37h.03c.72-1.03,1.88-1.54,3.5-1.54,1.12,0,2.07.27,2.84.81s1.33,1.34,1.68,2.38c.17.55.28,1.1.36,1.65.07.55.11,1.26.11,2.12s-.04,1.55-.11,2.11c-.07.56-.19,1.12-.36,1.67-.35,1.05-.91,1.84-1.68,2.38s-1.72.81-2.84.81ZM238.35,112.99c1.08,0,1.77-.48,2.07-1.43.09-.26.16-.55.19-.88.04-.33.05-.8.05-1.41s-.02-1.07-.05-1.41c-.04-.33-.1-.62-.19-.88-.29-.96-.98-1.43-2.07-1.43-.53,0-.97.12-1.31.36s-.58.6-.73,1.08c-.09.26-.16.55-.19.88-.04.33-.06.8-.06,1.41s.02,1.08.06,1.41c.04.33.1.63.19.88.29.96.97,1.43,2.04,1.43Z"/><path class="cls-1" d="M247.67,115.94c-.18,0-.27-.09-.27-.28v-12.79c0-.18.09-.28.27-.28h3.31c.18,0,.27.09.27.28v1.13h.03c.33-.55.79-.97,1.38-1.27.59-.29,1.29-.44,2.1-.44.44,0,.87.07,1.3.21.42.14.77.34,1.05.59.09.06.14.13.14.22,0,.04-.02.09-.05.17l-1.54,2.81c-.07.07-.14.11-.19.11s-.12-.02-.19-.05c-.66-.4-1.27-.61-1.82-.61-1.45,0-2.18.96-2.18,2.89v7.03c0,.18-.09.28-.27.28h-3.31Z"/><path class="cls-1" d="M266.31,115.94c-.18,0-.28-.09-.28-.28v-.88h-.03c-.75.98-1.98,1.46-3.67,1.46-.83,0-1.58-.15-2.25-.44-.67-.29-1.2-.74-1.6-1.35s-.59-1.37-.59-2.29c0-1.43.5-2.51,1.49-3.23.99-.72,2.34-1.07,4.05-1.07h2.37c.11,0,.17-.05.17-.17v-.5c0-.42-.08-.77-.25-1.03-.17-.27-.45-.46-.84-.59-.4-.13-.94-.19-1.64-.19-.64,0-1.21.08-1.71.23s-.92.36-1.27.62c-.07.06-.14.08-.21.07-.07,0-.12-.05-.15-.12l-1.24-2.18c-.09-.17-.07-.29.08-.39,1.25-.88,2.9-1.32,4.96-1.32,1.43,0,2.58.17,3.45.51.86.34,1.49.86,1.89,1.57.39.71.59,1.62.59,2.74v8.55c0,.18-.09.28-.28.28h-3.06ZM263.5,113.35c1.65,0,2.48-.62,2.48-1.85v-.91c0-.11-.06-.17-.17-.17h-1.88c-1.58,0-2.37.51-2.37,1.52,0,.94.64,1.41,1.93,1.41Z"/><path class="cls-1" d="M281.34,115.94c-.18,0-.28-.09-.28-.28v-7.66c0-.75-.17-1.35-.52-1.78-.35-.43-.86-.65-1.54-.65s-1.18.22-1.54.66-.55,1.03-.55,1.76v7.66c0,.18-.09.28-.27.28h-3.31c-.18,0-.27-.09-.27-.28v-12.79c0-.18.09-.28.27-.28h3.31c.18,0,.27.09.27.28v.94h.03c.35-.46.8-.83,1.36-1.1.56-.28,1.25-.41,2.08-.41.97,0,1.8.21,2.48.62.68.41,1.2.99,1.54,1.74.35.74.52,1.61.52,2.61v8.41c0,.18-.09.28-.28.28h-3.31Z"/><path class="cls-1" d="M296.42,115.94c-.18,0-.28-.09-.28-.28v-.96h-.03c-.72,1.03-1.88,1.54-3.5,1.54-1.12,0-2.07-.27-2.84-.81-.77-.54-1.33-1.34-1.68-2.38-.17-.55-.29-1.11-.36-1.67-.07-.56-.11-1.26-.11-2.11s.04-1.57.11-2.12c.07-.55.19-1.1.36-1.65.35-1.05.91-1.84,1.68-2.38.77-.54,1.72-.81,2.84-.81,1.62,0,2.79.51,3.5,1.54h.03v-6.37c0-.18.09-.28.28-.28h3.31c.18,0,.28.09.28.28v18.2c0,.18-.09.28-.28.28h-3.31ZM293.86,112.99c1.07,0,1.75-.48,2.04-1.43.09-.26.16-.55.19-.88.04-.33.05-.8.05-1.41s-.02-1.07-.05-1.41c-.04-.33-.1-.62-.19-.88-.15-.48-.39-.84-.73-1.08s-.78-.36-1.31-.36c-1.08,0-1.77.48-2.07,1.43-.09.26-.16.55-.19.88-.04.33-.06.8-.06,1.41s.02,1.08.06,1.41c.04.33.1.63.19.88.29.96.98,1.43,2.07,1.43Z"/><polygon class="cls-4" points="148.79 98.43 143.9 98.43 143.9 104.04 138.03 104.04 138.03 108.89 143.9 108.89 143.9 114.46 148.79 114.46 148.79 108.89 154.63 108.89 154.63 104.04 148.79 104.04 148.79 98.43"/><path class="cls-4" d="M170.05,110.68h6.62c-.47.93-.82,1.55-1.06,1.85-1.27,1.63-3.1,2.45-5.5,2.45-2.65,0-4.71-1.07-6.17-3.22-.92-1.35-1.37-3.03-1.37-5.04,0-2.68.88-4.76,2.64-6.23,1.34-1.12,2.92-1.68,4.76-1.68,2.26,0,4.15.72,5.67,2.17.47.54.78.9.92,1.09l4.4-2.56c-.4-.63-.79-1.16-1.16-1.58-.63-.7-1.39-1.34-2.25-1.92-2.16-1.42-4.66-2.14-7.51-2.14-3.05,0-5.64.78-7.75,2.35-.7.51-1.32,1.06-1.83,1.64-1.36,1.52-2.31,3.38-2.85,5.6-.23.98-.35,2.11-.35,3.4,0,2.99.74,5.55,2.22,7.7,1.81,2.64,4.28,4.27,7.4,4.9,1.03.21,2.04.32,3.03.32,4.39,0,7.79-1.63,10.18-4.9,1.62-2.22,2.43-5.14,2.43-8.79l-12.47-.03v4.62Z"/><polygon class="cls-4" points="185.87 119.25 191.3 119.25 191.3 108.89 200.32 108.89 200.32 104.06 191.3 104.06 191.3 99.23 200.32 99.23 200.32 94.54 185.87 94.54 185.87 119.25"/><polygon class="cls-4" points="214.46 104.04 214.46 98.43 209.58 98.43 209.58 104.04 203.7 104.04 203.7 108.89 209.58 108.89 209.58 114.46 214.46 114.46 214.46 108.89 220.3 108.89 220.3 104.04 214.46 104.04"/></svg>